<svg width="125" height="23" viewBox="0 0 125 23" version="1.1" xmlns="http://www.w3.org/2000/svg">
  <g id="surface1">
    <path fill="#ffffff" d="M 13.847656 14.679688 C 13.847656 11.5 11.425781 9.070312 8.277344 9.070312 C 5.160156 9.070312 2.738281 11.5 2.738281 14.679688 C 2.738281 17.863281 5.160156 20.289062 8.277344 20.289062 C 11.425781 20.289062 13.847656 17.863281 13.847656 14.679688 Z M 0 14.679688 C 0 10.015625 3.683594 6.394531 8.277344 6.394531 C 12.875 6.394531 16.585938 10.015625 16.585938 14.679688 C 16.585938 19.34375 12.875 22.96875 8.277344 22.96875 C 3.683594 22.96875 0 19.34375 0 14.679688 Z M 0 14.679688 "></path>
    <path fill="#ffffff" d="M 22.773438 6.332031 L 22.773438 6.804688 L 26.925781 6.804688 L 26.925781 9.449219 L 22.773438 9.449219 L 22.773438 22.558594 L 20.035156 22.558594 L 20.035156 9.449219 L 17.515625 9.449219 L 17.515625 6.804688 L 20.035156 6.804688 L 20.035156 6.332031 C 20.035156 2.140625 22.425781 -0.226562 26.925781 0.0898438 L 26.925781 2.738281 C 24.1875 2.515625 22.773438 3.589844 22.773438 6.332031 "></path>
    <path fill="#ffffff" d="M 33.472656 6.328125 L 33.472656 6.800781 L 37.628906 6.800781 L 37.628906 9.449219 L 33.472656 9.449219 L 33.472656 22.558594 L 30.734375 22.558594 L 30.734375 9.449219 L 28.21875 9.449219 L 28.21875 6.800781 L 30.734375 6.800781 L 30.734375 6.328125 C 30.734375 2.140625 33.128906 -0.226562 37.628906 0.0898438 L 37.628906 2.738281 C 34.890625 2.515625 33.472656 3.589844 33.472656 6.328125 "></path>
    <path fill="#ffffff" d="M 39.546875 22.558594 L 42.285156 22.558594 L 42.285156 6.804688 L 39.546875 6.804688 Z M 39.074219 2.105469 C 39.074219 1.097656 39.894531 0.25 40.933594 0.25 C 41.941406 0.25 42.757812 1.097656 42.757812 2.105469 C 42.757812 3.117188 41.941406 3.933594 40.933594 3.933594 C 39.894531 3.933594 39.074219 3.117188 39.074219 2.105469 Z M 39.074219 2.105469 "></path>
    <path fill="#ffffff" d="M 44.671875 14.679688 C 44.671875 10.015625 48.195312 6.394531 52.949219 6.394531 C 56.0625 6.394531 58.707031 8.03125 59.902344 10.519531 L 57.605469 11.84375 C 56.820312 10.175781 55.058594 9.070312 52.949219 9.070312 C 49.800781 9.070312 47.410156 11.5 47.410156 14.679688 C 47.410156 17.832031 49.800781 20.257812 52.949219 20.257812 C 55.089844 20.257812 56.820312 19.15625 57.699219 17.515625 L 60.03125 18.871094 C 58.707031 21.328125 56.03125 22.96875 52.949219 22.96875 C 48.195312 22.96875 44.671875 19.34375 44.671875 14.679688 "></path>
    <path fill="#ffffff" d="M 63.71875 13.546875 L 74.234375 13.546875 C 73.761719 10.425781 71.527344 8.976562 69.164062 8.976562 C 66.207031 8.976562 64.160156 10.804688 63.71875 13.546875 Z M 69.417969 20.382812 C 71.589844 20.382812 73.164062 19.375 73.949219 18.085938 L 76.277344 19.40625 C 74.894531 21.550781 72.5 22.96875 69.355469 22.96875 C 64.285156 22.96875 60.917969 19.40625 60.917969 14.679688 C 60.917969 10.015625 64.253906 6.394531 69.164062 6.394531 C 73.917969 6.394531 77.003906 10.300781 77.003906 14.710938 C 77.003906 15.121094 76.972656 15.53125 76.90625 15.941406 L 63.71875 15.941406 C 64.253906 18.777344 66.488281 20.382812 69.417969 20.382812 Z M 69.417969 20.382812 "></path>
    <path fill="#ffffff" d="M 88.988281 6.488281 L 88.988281 11.84375 C 87.035156 11.53125 84.265625 12.316406 84.265625 15.4375 L 84.265625 22.558594 L 79.542969 22.558594 L 79.542969 6.804688 L 84.265625 6.804688 L 84.265625 9.605469 C 84.894531 7.496094 87.003906 6.488281 88.988281 6.488281 "></path>
    <path fill="#ffffff" d="M 106.316406 12.882812 L 106.316406 22.558594 L 101.597656 22.558594 L 101.597656 13.578125 C 101.597656 11.625 100.371094 10.710938 98.859375 10.710938 C 97.128906 10.710938 95.929688 11.71875 95.929688 13.957031 L 95.929688 22.558594 L 91.210938 22.558594 L 91.210938 6.804688 L 95.929688 6.804688 L 95.929688 8.285156 C 96.78125 7.117188 98.355469 6.363281 100.433594 6.363281 C 103.609375 6.363281 106.316406 8.628906 106.316406 12.882812 "></path>
    <path fill="#ffffff" d="M 120.195312 14.679688 C 120.195312 12.316406 118.621094 10.835938 116.449219 10.835938 C 114.277344 10.835938 112.707031 12.316406 112.707031 14.679688 C 112.707031 17.042969 114.277344 18.523438 116.449219 18.523438 C 118.621094 18.523438 120.195312 17.042969 120.195312 14.679688 Z M 124.917969 0.0625 L 124.917969 22.558594 L 120.195312 22.558594 L 120.195312 21.078125 C 119.15625 22.277344 117.613281 23 115.507812 23 C 111.382812 23 107.984375 19.375 107.984375 14.679688 C 107.984375 9.984375 111.382812 6.363281 115.507812 6.363281 C 117.613281 6.363281 119.15625 7.085938 120.195312 8.285156 L 120.195312 0.0625 Z M 124.917969 0.0625 "></path>
  </g>
</svg>
