<svg xmlns="http://www.w3.org/2000/svg" width="4694" height="3557.002" viewBox="0 0 4694 3557.002"><defs><style>.a{fill:#fff;}</style></defs><path class="a" d="M4060,3077H-634V-480H4060V3077ZM1752.238,1077c-121.585,0-238.185,99.144-259.92,221.008a220.721,220.721,0,0,0-3.2,44.953,197.362,197.362,0,0,0,5.885,41.9,182.241,182.241,0,0,0,14.228,37.9,173.986,173.986,0,0,0,21.829,32.948,171.971,171.971,0,0,0,27.814,26.386,176.21,176.21,0,0,0,33.619,19.929,188.2,188.2,0,0,0,38.741,12.6,210.151,210.151,0,0,0,43.182,4.394,233.422,233.422,0,0,0,46.1-4.658,252.006,252.006,0,0,0,44.272-13.339,273.866,273.866,0,0,0,41.5-21.072,292.372,292.372,0,0,0,37.781-27.856c.092-.092,9.707-9.738,20.376-21.09,9.866-10.5,22.711-24.677,27.873-32.607a324.328,324.328,0,0,0,26.067-48.123,255.4,255.4,0,0,0,9.534-25.735,215.684,215.684,0,0,0,6.419-26.531,220.559,220.559,0,0,0,3.432-44.929,195.862,195.862,0,0,0-5.674-41.8,180.505,180.505,0,0,0-14.022-37.76,171.188,171.188,0,0,0-49.549-59.392,176.552,176.552,0,0,0-33.829-20.052,189.391,189.391,0,0,0-39-12.664A211.86,211.86,0,0,0,1752.238,1077Z" transform="translate(634 480)"/></svg>